{
  "asset": {
    "generator": "Khronos glTF Blender I/O v5.1.20",
    "version": "2.0"
  },
  "scene": 0,
  "scenes": [
    {
      "name": "Scene",
      "nodes": [
        0
      ]
    }
  ],
  "nodes": [
    {
      "mesh": 0,
      "name": "television_02"
    }
  ],
  "materials": [
    {
      "doubleSided": true,
      "name": "television_02",
      "normalTexture": {
        "index": 0
      },
      "pbrMetallicRoughness": {
        "baseColorTexture": {
          "index": 1
        },
        "metallicRoughnessTexture": {
          "index": 2
        }
      }
    }
  ],
  "meshes": [
    {
      "name": "Cube.001",
      "primitives": [
        {
          "attributes": {
            "POSITION": 0,
            "NORMAL": 1,
            "TEXCOORD_0": 2
          },
          "indices": 3,
          "material": 0
        }
      ]
    }
  ],
  "textures": [
    {
      "sampler": 0,
      "source": 0
    },
    {
      "sampler": 0,
      "source": 1
    },
    {
      "sampler": 0,
      "source": 2
    }
  ],
  "images": [
    {
      "mimeType": "image/jpeg",
      "name": "television_02_nor_gl",
      "uri": "textures/television_02_nor_gl_1k.jpg"
    },
    {
      "mimeType": "image/jpeg",
      "name": "television_02_diff",
      "uri": "textures/television_02_diff_1k.jpg"
    },
    {
      "mimeType": "image/jpeg",
      "name": "television_02_metal-television_02_rough",
      "uri": "textures/television_02_arm_1k.jpg"
    }
  ],
  "accessors": [
    {
      "bufferView": 0,
      "componentType": 5126,
      "count": 2119,
      "max": [
        0.19803974032402039,
        0.41141477227211,
        0.12190267443656921
      ],
      "min": [
        -0.20170873403549194,
        2.97835756057907e-9,
        -0.22829124331474304
      ],
      "type": "VEC3"
    },
    {
      "bufferView": 1,
      "componentType": 5126,
      "count": 2119,
      "type": "VEC3"
    },
    {
      "bufferView": 2,
      "componentType": 5126,
      "count": 2119,
      "type": "VEC2"
    },
    {
      "bufferView": 3,
      "componentType": 5123,
      "count": 6930,
      "type": "SCALAR"
    }
  ],
  "bufferViews": [
    {
      "buffer": 0,
      "byteLength": 25428,
      "byteOffset": 0,
      "target": 34962
    },
    {
      "buffer": 0,
      "byteLength": 25428,
      "byteOffset": 25428,
      "target": 34962
    },
    {
      "buffer": 0,
      "byteLength": 16952,
      "byteOffset": 50856,
      "target": 34962
    },
    {
      "buffer": 0,
      "byteLength": 13860,
      "byteOffset": 67808,
      "target": 34963
    }
  ],
  "samplers": [
    {
      "magFilter": 9729,
      "minFilter": 9987
    }
  ],
  "buffers": [
    {
      "byteLength": 81668,
      "uri": "television_02.bin"
    }
  ]
}